<svg width="48" height="49" viewBox="0 0 48 49" fill="none" xmlns="http://www.w3.org/2000/svg">
<path d="M23.7355 48.6799C14.2374 48.6799 6.52649 40.9495 6.52649 31.4653C6.52649 21.9811 14.2544 14.2507 23.7355 14.2507C33.2337 14.2507 40.9445 21.9811 40.9445 31.4653C40.9445 40.9495 33.2337 48.6799 23.7355 48.6799ZM23.7355 16.7878C15.6502 16.7878 9.07976 23.3603 9.07976 31.4483C9.07976 39.5363 15.6502 46.1089 23.7355 46.1089C31.8209 46.1089 38.3913 39.5363 38.3913 31.4483C38.3913 23.3603 31.8209 16.7878 23.7355 16.7878Z" fill="url(#paint0_linear_137_4175)"/>
<path d="M36.7403 13.0247H34.187V7.98464C34.187 5.36245 32.0593 3.23402 29.4379 3.23402H18.0333C15.412 3.23402 13.2842 5.36245 13.2842 7.98464V12.9736H10.731V7.98464C10.731 3.94919 13.9991 0.679932 18.0333 0.679932H29.4379C33.4721 0.679932 36.7403 3.94919 36.7403 7.98464V13.0247Z" fill="#7ADEC9"/>
<defs>
<linearGradient id="paint0_linear_137_4175" x1="41.155" y1="44.7504" x2="6.61178" y2="14.1853" gradientUnits="userSpaceOnUse">
<stop stop-color="#FFAA30"/>
<stop offset="0.361383" stop-color="#FE7000"/>
<stop offset="1" stop-color="#FE7000"/>
</linearGradient>
</defs>
</svg>
