<svg width="50" height="53" viewBox="0 0 50 53" fill="none" xmlns="http://www.w3.org/2000/svg">
<path d="M6.26443 46.7129V15.4546C6.26443 11.4233 9.54342 8.1436 13.5745 8.1436H34.1383C38.1693 8.1436 41.4483 11.4233 41.4483 15.4546V46.7129H44.5919V15.4546C44.5919 9.69 39.9031 5.00002 34.1383 5.00002H13.5745C7.81203 5.00002 3.12085 9.69 3.12085 15.4546V46.7129H6.26443Z" fill="url(#paint0_linear_955_202)"/>
<path d="M3 49.3728V53H44.592V49.3728H3Z" fill="#7ADEC9"/>
<path d="M20.0479 46.592V36.315H26.8186V46.592H30.4459V32.6878H16.4207V46.592H20.0479Z" fill="#7ADEC9"/>
<path fill-rule="evenodd" clip-rule="evenodd" d="M16.619 24.5335C16.5077 24.549 16.3312 24.473 16.2248 24.4503C16.162 24.4375 16.087 24.4573 16.058 24.4147C16.0507 24.3816 16.0459 24.348 16.0386 24.3144C16.0024 24.2863 15.9685 24.258 15.9322 24.23C15.8887 24.1633 15.9105 24.091 15.8694 24.0187C15.7871 23.8728 15.6662 23.7224 15.5768 23.5829C15.5066 23.4705 15.4994 23.3517 15.4196 23.2528C15.3785 23.2025 15.2987 23.166 15.2576 23.115C15.1657 22.9996 15.0569 22.7049 14.8779 22.6962C14.7522 22.9336 14.6337 23.197 14.5563 23.4736C14.5563 23.5413 14.5563 23.609 14.5563 23.6772C14.5394 23.7331 14.4934 23.7955 14.4789 23.8629C14.4644 23.928 14.4451 24.1301 14.4596 24.1923C14.4644 24.215 14.4427 24.2489 14.4547 24.3042C14.4644 24.3582 14.4789 24.4844 14.4281 24.5112C14.3919 24.5299 14.3435 24.5398 14.3048 24.5637C14.2831 24.5765 14.1525 24.7255 14.1259 24.7555C13.9905 24.7642 13.8841 24.7252 13.8816 24.7018C13.8768 24.6788 13.8478 24.606 13.9107 24.5644C13.9348 24.5497 14.0025 24.4655 13.9929 24.4351C13.9856 24.4155 14.0364 24.3584 14.0485 24.3117C14.0679 24.2344 14.0533 24.1995 14.0751 24.1132C14.0824 23.9693 14.092 23.8254 14.0993 23.6816C14.1331 23.5283 14.1984 23.395 14.2274 23.2436C14.2129 23.1655 14.2492 22.4851 14.2782 22.3238C14.2879 22.2749 14.3121 22.2123 14.3145 22.1632C14.3266 22.1228 14.3725 22.051 14.3822 22.0118C14.3919 21.9707 14.358 21.9565 14.375 21.9105C14.3991 21.8522 14.4547 21.7879 14.4789 21.7231C14.5176 21.6254 14.5079 21.5422 14.5515 21.4472C14.5902 21.3638 14.653 21.2731 14.6893 21.1902C14.7062 21.1215 14.7981 20.9215 14.8102 20.8775C14.8368 20.7786 14.7812 20.6601 14.8029 20.5496C14.8416 20.3453 14.8223 20.0858 14.7643 19.9064C14.7232 19.7818 14.7667 19.5659 14.7884 19.4888C14.7884 19.4873 14.7909 19.4863 14.7909 19.4849C14.7909 19.4846 14.7909 19.4815 14.7933 19.4776C14.7933 19.4726 14.7957 19.4684 14.7981 19.4655C14.7933 19.4544 14.7909 19.4447 14.7884 19.4232C14.7884 19.4225 14.7884 19.4218 14.7884 19.4211C14.7884 19.4169 14.7884 19.4128 14.7884 19.409C14.7884 19.4082 14.7884 19.4073 14.7884 19.407C14.7788 19.3983 14.7715 19.3889 14.7643 19.3783C14.7618 19.3717 14.757 19.3647 14.757 19.357C14.757 19.3543 14.7546 19.3521 14.7546 19.3497C14.7546 19.3471 14.7522 19.3449 14.7498 19.3437C14.7449 19.3417 14.7425 19.3386 14.7425 19.335C14.7401 19.3284 14.7401 19.3217 14.7401 19.3146C14.7401 19.3093 14.7401 19.304 14.7401 19.2987C14.7401 19.2919 14.7401 19.2851 14.7401 19.2784C14.7377 19.2711 14.7377 19.2636 14.7425 19.2571C14.7449 19.2491 14.7522 19.2453 14.7594 19.244C14.7618 19.2438 14.7643 19.2433 14.7691 19.2428C14.7739 19.2421 14.7788 19.2397 14.7812 19.2368C14.7836 19.2353 14.7836 19.2329 14.786 19.2307C14.786 19.2261 14.7884 19.2208 14.7884 19.2162C14.7909 19.2124 14.7933 19.209 14.7933 19.2053C14.7957 19.2008 14.8005 19.1988 14.8054 19.1991C14.8102 19.1993 14.8151 19.2 14.8223 19.201C14.8271 19.202 14.832 19.2029 14.8392 19.1998C14.8416 19.1986 14.8441 19.1974 14.8441 19.1962C14.8513 19.193 14.8537 19.1894 14.8586 19.186C14.861 19.1848 14.8634 19.1831 14.8634 19.1812C14.8658 19.1766 14.8658 19.1722 14.8682 19.1679C14.8707 19.1647 14.8731 19.1626 14.8755 19.1604C14.8803 19.1565 14.8852 19.1558 14.8924 19.157C14.8997 19.1589 14.9069 19.1623 14.9118 19.1652C14.919 19.1684 14.9263 19.1708 14.9335 19.1713C14.9384 19.1715 14.9432 19.1705 14.948 19.1679C14.9529 19.1638 14.9601 19.1606 14.9674 19.1594C14.9747 19.158 14.9819 19.1606 14.9867 19.1674C14.9892 19.1722 14.9916 19.1778 14.9916 19.1836C14.9916 19.1923 14.9916 19.2012 14.994 19.2102C14.994 19.2172 14.994 19.2245 14.994 19.2312C14.994 19.237 14.994 19.2428 14.994 19.2486C14.9916 19.2602 14.9891 19.2716 14.9891 19.2827C14.9891 19.2868 14.9891 19.2905 14.9891 19.2943C14.9891 19.2975 14.9892 19.3004 14.9916 19.3023C14.9964 19.3074 15.0037 19.312 15.0085 19.3171C15.0085 19.3176 15.0085 19.3178 15.0109 19.3183C15.0158 19.3214 15.0182 19.3263 15.0182 19.3323C15.0182 19.3408 15.0182 19.349 15.0182 19.3575C15.0182 19.3594 15.0182 19.3613 15.0182 19.3628C15.0133 19.3693 15.0109 19.3756 15.0061 19.3807C15.0037 19.3831 15.0012 19.385 14.9988 19.3865C14.9843 19.3947 14.9698 19.4024 14.9553 19.4109C14.9553 19.4109 14.9529 19.4114 14.9529 19.4116C14.9529 19.4133 14.9529 19.4218 14.9505 19.4293C14.9505 19.43 14.9505 19.4307 14.9505 19.4314C14.9505 19.4479 14.9505 19.466 14.9505 19.4849C14.9505 19.49 14.9505 19.495 14.9505 19.5001C14.9529 19.5081 14.9529 19.5163 14.9529 19.5243C14.965 19.6193 14.994 19.7308 15.0133 19.8125C15.0303 19.888 14.9867 20.0239 15.0182 20.118C15.0472 20.2086 15.0689 20.3087 15.098 20.396C15.1028 20.4604 15.1052 20.5242 15.1101 20.588C15.1173 20.6064 15.1512 20.6567 15.1584 20.6749C15.1947 20.7515 15.1633 20.7779 15.2721 20.7825C15.2721 20.7745 15.2116 20.6016 15.2406 20.5288C15.3011 20.3818 15.2116 20.3276 15.3688 20.2669C15.4583 20.1891 15.6638 20.2454 15.7025 20.3266C15.7412 20.3694 15.7484 20.4311 15.7388 20.4814C15.746 20.5336 15.7194 20.6785 15.7001 20.6983C15.6711 20.7443 15.6493 20.7839 15.6179 20.8299C15.5937 20.8676 15.5405 20.891 15.5236 20.937C15.4462 21.1312 15.6566 21.247 15.6155 21.4184C15.6082 21.4433 15.5647 21.5425 15.5478 21.5696C15.5163 21.5979 15.4825 21.6264 15.451 21.6544C15.4027 21.7429 15.4244 21.8331 15.3906 21.9299C15.3761 21.9739 15.3229 22.0595 15.3519 22.1359C15.364 22.1688 15.4075 22.1956 15.422 22.2225C15.4268 22.2674 15.4341 22.3122 15.4413 22.3569C15.4849 22.4568 15.5792 22.5528 15.6227 22.6519C15.7073 22.8384 15.7243 23.04 15.821 23.2064C15.8766 23.3 15.9903 23.3737 16.0531 23.4644C16.1208 23.5645 16.1281 23.6808 16.1958 23.773C16.307 23.9193 16.3506 24.1347 16.515 24.2295C16.8681 24.4338 16.6528 24.5289 16.619 24.5335V24.5335ZM15.9685 18.8707L16.4715 18.7819L14.9626 18.8463L15.5864 17.998L14.832 18.7258L14.6482 17.6505L14.6603 18.7343L13.8139 18.1685L14.5442 18.868L13.0885 19.067L13.5842 19.0709L13.2626 25.0435L14.965 24.8943L14.9698 23.8242L15.5598 23.7727L15.7412 24.8263L17.4242 24.6793L15.9685 18.8707" fill="url(#paint1_linear_955_202)"/>
<path d="M20.8676 20.2283L19.3394 20.3622L19.3007 19.9245C19.2813 19.7202 19.2523 19.5918 19.2064 19.5393C19.1628 19.4869 19.0951 19.4646 19.0032 19.4724C18.9041 19.4813 18.834 19.5256 18.7904 19.6053C18.7445 19.6851 18.73 19.8019 18.7421 19.955C18.759 20.1521 18.8025 20.2981 18.8678 20.3927C18.9307 20.488 19.0975 20.5949 19.3635 20.7133C20.1325 21.0548 20.6234 21.3474 20.8362 21.5911C21.0514 21.8346 21.182 22.2457 21.2328 22.8244C21.269 23.2451 21.2448 23.5597 21.1554 23.7684C21.0683 23.9771 20.8773 24.1621 20.5871 24.3234C20.2969 24.4849 19.9512 24.5833 19.5497 24.6184C19.1096 24.6568 18.7252 24.6121 18.4011 24.4837C18.0747 24.3553 17.8546 24.1749 17.7361 23.9425C17.6177 23.7104 17.5403 23.373 17.5016 22.9303L17.4677 22.5436L18.996 22.4097L19.0588 23.1283C19.0782 23.3498 19.1145 23.4901 19.1628 23.5496C19.2112 23.6091 19.2886 23.634 19.3998 23.6243C19.5086 23.6146 19.586 23.5675 19.6319 23.4826C19.6803 23.3975 19.6948 23.2763 19.6827 23.1182C19.6513 22.7705 19.5812 22.5475 19.4699 22.4493C19.3563 22.3516 19.083 22.1952 18.6526 21.9807C18.2198 21.7635 17.9344 21.6039 17.7893 21.5009C17.6466 21.3984 17.5233 21.2502 17.4193 21.0555C17.313 20.8616 17.2477 20.6077 17.2186 20.2938C17.18 19.8416 17.2138 19.5055 17.3178 19.2857C17.4242 19.0656 17.6104 18.8847 17.8764 18.7423C18.1424 18.6004 18.4712 18.5121 18.863 18.478C19.291 18.4403 19.661 18.4729 19.9729 18.5755C20.2849 18.678 20.4977 18.8231 20.6137 19.01C20.7274 19.1974 20.8072 19.5256 20.8483 19.9949L20.8676 20.2283" fill="url(#paint2_linear_955_202)"/>
<path d="M22.8915 18.2505L23.4066 24.1558L21.7598 24.2999L21.2448 18.3944L22.8915 18.2505" fill="url(#paint3_linear_955_202)"/>
<path d="M27.6457 20.2352L25.982 20.3807L25.9239 19.7148C25.8973 19.4164 25.8635 19.2319 25.82 19.1608C25.7789 19.0899 25.6966 19.06 25.5757 19.0706C25.4403 19.0827 25.3557 19.1349 25.3267 19.2283C25.2976 19.3214 25.2976 19.5175 25.3218 19.8166L25.5322 22.2161C25.5588 22.5034 25.5926 22.6889 25.6362 22.7733C25.6821 22.8574 25.7692 22.8939 25.8973 22.8826C26.0207 22.8719 26.098 22.8211 26.1295 22.73C26.1609 22.6388 26.1609 22.4311 26.1319 22.1068L26.0666 21.3398L27.7303 21.1942L27.7666 21.6208C27.8198 22.2321 27.8101 22.6695 27.7399 22.9336C27.6698 23.1974 27.4812 23.4397 27.179 23.66C26.8743 23.8805 26.4898 24.0111 26.0207 24.0522C25.5322 24.0948 25.1235 24.0486 24.7923 23.9132C24.4634 23.778 24.2337 23.5705 24.1055 23.2915C23.9773 23.0124 23.8879 22.5837 23.8371 22.0045L23.6872 20.2792C23.6485 19.8538 23.6388 19.5332 23.6509 19.3177C23.663 19.1023 23.7404 18.889 23.8806 18.6781C24.0184 18.4678 24.2216 18.2937 24.49 18.1563C24.7584 18.019 25.0728 17.9343 25.4331 17.9029C25.9239 17.8601 26.3374 17.9118 26.6712 18.0589C27.0049 18.2059 27.2322 18.4056 27.3555 18.6578C27.4788 18.91 27.5634 19.3119 27.6118 19.8633L27.6457 20.2352Z" fill="url(#paint4_linear_955_202)"/>
<path d="M29.3433 17.6746L32.0685 17.4359L32.1725 18.6228L31.0553 18.7205L31.1544 19.8449L32.1483 19.7578L32.2474 20.8859L31.2536 20.973L31.4712 23.4636L29.8607 23.6046L29.3433 17.6746Z" fill="url(#paint5_linear_955_202)"/>
<path d="M34.0706 17.2612L34.588 23.1909L32.9776 23.3319L32.4601 17.4019L34.0706 17.2612" fill="url(#paint6_linear_955_202)"/>
<path d="M37.9589 16.9207L38.0629 18.1073L37.1078 18.1912L37.5212 22.9343L35.9108 23.0751L35.4973 18.3321L34.5445 18.4153L34.4406 17.2287L37.9589 16.9207" fill="url(#paint7_linear_955_202)"/>
<path d="M28.1319 21.1589L29.2152 21.0644L29.133 20.1054L28.0497 20.1999L28.1319 21.1589Z" fill="url(#paint8_linear_955_202)"/>
<path d="M10.5397 22.5985L10.6824 24.2511C10.9146 24.2233 11.1467 24.1689 11.2047 24.1026C11.2628 24.0359 11.2821 23.8838 11.2603 23.6454L11.212 23.0947C11.1902 22.8416 11.1491 22.6912 11.0863 22.6426C11.0234 22.5942 10.784 22.5843 10.5397 22.5985V22.5985ZM10.3439 20.3661L10.4575 21.6794C10.5277 21.6709 10.6703 21.6574 10.709 21.6538C10.871 21.6397 10.9702 21.5936 11.0064 21.5157C11.0451 21.4376 11.05 21.2236 11.0185 20.8732C11.0016 20.6882 10.9726 20.5605 10.9291 20.4894C10.8856 20.4186 10.8348 20.3758 10.7743 20.3615C10.7139 20.3473 10.5132 20.3538 10.3439 20.3661ZM8.60767 19.4999L10.252 19.3561C10.7695 19.3108 11.2531 19.3067 11.5263 19.3585C11.7996 19.4105 12.0293 19.544 12.2131 19.7592C12.3993 19.9746 12.513 20.3373 12.5565 20.8476C12.5879 21.1926 12.5516 21.4386 12.4477 21.5849C12.3413 21.7309 12.1236 21.8557 11.7875 21.9582C12.1744 22.0054 12.4453 22.1159 12.5976 22.2902C12.7499 22.4643 12.8418 22.7439 12.8757 23.1281L12.924 23.6756C12.9579 24.0746 12.9361 24.3744 12.8539 24.5754C12.7741 24.7761 12.629 24.9212 12.4211 25.0104C12.2131 25.0996 11.7778 25.1734 11.1153 25.2312L9.12513 25.4053L8.60767 19.4999" fill="url(#paint9_linear_955_202)"/>
<path fill-rule="evenodd" clip-rule="evenodd" d="M46.9324 20H50L50 13.4546C50 6.03354 43.8326 0 36.2432 0H30V3H36.2432C42.138 3 46.9324 7.68998 46.9324 13.4546V20Z" fill="url(#paint10_linear_955_202)"/>
<defs>
<linearGradient id="paint0_linear_955_202" x1="44.8455" y1="9.7608" x2="3.02308" y2="46.5642" gradientUnits="userSpaceOnUse">
<stop stop-color="#FFAA30"/>
<stop offset="0.361383" stop-color="#FE7000"/>
<stop offset="1" stop-color="#FE7000"/>
</linearGradient>
<linearGradient id="paint1_linear_955_202" x1="17.4507" y1="18.4943" x2="11.3391" y2="21.6668" gradientUnits="userSpaceOnUse">
<stop stop-color="#FFAA30"/>
<stop offset="0.361383" stop-color="#FE7000"/>
<stop offset="1" stop-color="#FE7000"/>
</linearGradient>
<linearGradient id="paint2_linear_955_202" x1="21.2737" y1="19.1669" x2="15.8588" y2="22.3103" gradientUnits="userSpaceOnUse">
<stop stop-color="#FFAA30"/>
<stop offset="0.361383" stop-color="#FE7000"/>
<stop offset="1" stop-color="#FE7000"/>
</linearGradient>
<linearGradient id="paint3_linear_955_202" x1="23.4198" y1="18.9409" x2="19.9032" y2="20.0532" gradientUnits="userSpaceOnUse">
<stop stop-color="#FFAA30"/>
<stop offset="0.361383" stop-color="#FE7000"/>
<stop offset="1" stop-color="#FE7000"/>
</linearGradient>
<linearGradient id="paint4_linear_955_202" x1="27.8259" y1="18.5936" x2="22.336" y2="21.8607" gradientUnits="userSpaceOnUse">
<stop stop-color="#FFAA30"/>
<stop offset="0.361383" stop-color="#FE7000"/>
<stop offset="1" stop-color="#FE7000"/>
</linearGradient>
<linearGradient id="paint5_linear_955_202" x1="32.2652" y1="18.14" x2="27.8373" y2="19.9851" gradientUnits="userSpaceOnUse">
<stop stop-color="#FFAA30"/>
<stop offset="0.361383" stop-color="#FE7000"/>
<stop offset="1" stop-color="#FE7000"/>
</linearGradient>
<linearGradient id="paint6_linear_955_202" x1="34.6011" y1="17.954" x2="31.1276" y2="19.0317" gradientUnits="userSpaceOnUse">
<stop stop-color="#FFAA30"/>
<stop offset="0.361383" stop-color="#FE7000"/>
<stop offset="1" stop-color="#FE7000"/>
</linearGradient>
<linearGradient id="paint7_linear_955_202" x1="38.0851" y1="17.6231" x2="32.9868" y2="20.2791" gradientUnits="userSpaceOnUse">
<stop stop-color="#FFAA30"/>
<stop offset="0.361383" stop-color="#FE7000"/>
<stop offset="1" stop-color="#FE7000"/>
</linearGradient>
<linearGradient id="paint8_linear_955_202" x1="29.2223" y1="20.2256" x2="28.1576" y2="21.2682" gradientUnits="userSpaceOnUse">
<stop stop-color="#FFAA30"/>
<stop offset="0.361383" stop-color="#FE7000"/>
<stop offset="1" stop-color="#FE7000"/>
</linearGradient>
<linearGradient id="paint9_linear_955_202" x1="12.9658" y1="20.0153" x2="7.41774" y2="23.5115" gradientUnits="userSpaceOnUse">
<stop stop-color="#FFAA30"/>
<stop offset="0.361383" stop-color="#FE7000"/>
<stop offset="1" stop-color="#FE7000"/>
</linearGradient>
<linearGradient id="paint10_linear_955_202" x1="46.5" y1="2" x2="23.5" y2="26.5" gradientUnits="userSpaceOnUse">
<stop stop-color="#FFAA30"/>
<stop offset="0.802083" stop-color="#FE7000"/>
</linearGradient>
</defs>
</svg>
