<svg width="48" height="48" viewBox="0 0 48 48" fill="none" xmlns="http://www.w3.org/2000/svg">
<path d="M6.26443 41.7129V10.4546C6.26443 6.42332 9.54342 3.1436 13.5745 3.1436H34.1383C38.1693 3.1436 41.4483 6.42332 41.4483 10.4546V41.7129H44.5919V10.4546C44.5919 4.69 39.9031 1.90735e-05 34.1383 1.90735e-05H13.5745C7.81203 1.90735e-05 3.12085 4.69 3.12085 10.4546V41.7129H6.26443Z" fill="url(#paint0_linear_137_4414)"/>
<path d="M3 44.3728V48H44.592V44.3728H3Z" fill="#7ADEC9"/>
<path d="M20.0479 41.592V31.315H26.8186V41.592H30.4459V27.6878H16.4207V41.592H20.0479Z" fill="#7ADEC9"/>
<path fill-rule="evenodd" clip-rule="evenodd" d="M16.619 19.5335C16.5077 19.549 16.3312 19.473 16.2248 19.4503C16.162 19.4375 16.087 19.4573 16.058 19.4147C16.0507 19.3816 16.0459 19.348 16.0386 19.3144C16.0024 19.2863 15.9685 19.258 15.9322 19.23C15.8887 19.1633 15.9105 19.091 15.8694 19.0187C15.7871 18.8728 15.6662 18.7224 15.5768 18.5829C15.5066 18.4705 15.4994 18.3517 15.4196 18.2528C15.3785 18.2025 15.2987 18.166 15.2576 18.115C15.1657 17.9996 15.0569 17.7049 14.8779 17.6962C14.7522 17.9336 14.6337 18.197 14.5563 18.4736C14.5563 18.5413 14.5563 18.609 14.5563 18.6772C14.5394 18.7331 14.4934 18.7955 14.4789 18.8629C14.4644 18.928 14.4451 19.1301 14.4596 19.1923C14.4644 19.215 14.4427 19.2489 14.4547 19.3042C14.4644 19.3582 14.4789 19.4844 14.4281 19.5112C14.3919 19.5299 14.3435 19.5398 14.3048 19.5637C14.2831 19.5765 14.1525 19.7255 14.1259 19.7555C13.9905 19.7642 13.8841 19.7252 13.8816 19.7018C13.8768 19.6788 13.8478 19.606 13.9107 19.5644C13.9348 19.5497 14.0025 19.4655 13.9929 19.4351C13.9856 19.4155 14.0364 19.3584 14.0485 19.3117C14.0679 19.2344 14.0533 19.1995 14.0751 19.1132C14.0824 18.9693 14.092 18.8254 14.0993 18.6816C14.1331 18.5283 14.1984 18.395 14.2274 18.2436C14.2129 18.1655 14.2492 17.4851 14.2782 17.3238C14.2879 17.2749 14.3121 17.2123 14.3145 17.1632C14.3266 17.1228 14.3725 17.051 14.3822 17.0118C14.3919 16.9707 14.358 16.9565 14.375 16.9105C14.3991 16.8522 14.4547 16.7879 14.4789 16.7231C14.5176 16.6254 14.5079 16.5422 14.5515 16.4472C14.5902 16.3638 14.653 16.2731 14.6893 16.1902C14.7062 16.1215 14.7981 15.9215 14.8102 15.8775C14.8368 15.7786 14.7812 15.6601 14.8029 15.5496C14.8416 15.3453 14.8223 15.0858 14.7643 14.9064C14.7232 14.7818 14.7667 14.5659 14.7884 14.4888C14.7884 14.4873 14.7909 14.4863 14.7909 14.4849C14.7909 14.4846 14.7909 14.4815 14.7933 14.4776C14.7933 14.4726 14.7957 14.4684 14.7981 14.4655C14.7933 14.4544 14.7909 14.4447 14.7884 14.4232C14.7884 14.4225 14.7884 14.4218 14.7884 14.4211C14.7884 14.4169 14.7884 14.4128 14.7884 14.409C14.7884 14.4082 14.7884 14.4073 14.7884 14.407C14.7788 14.3983 14.7715 14.3889 14.7643 14.3783C14.7618 14.3717 14.757 14.3647 14.757 14.357C14.757 14.3543 14.7546 14.3521 14.7546 14.3497C14.7546 14.3471 14.7522 14.3449 14.7498 14.3437C14.7449 14.3417 14.7425 14.3386 14.7425 14.335C14.7401 14.3284 14.7401 14.3217 14.7401 14.3147C14.7401 14.3093 14.7401 14.304 14.7401 14.2987C14.7401 14.2919 14.7401 14.2851 14.7401 14.2784C14.7377 14.2711 14.7377 14.2636 14.7425 14.2571C14.7449 14.2491 14.7522 14.2453 14.7594 14.244C14.7618 14.2438 14.7643 14.2433 14.7691 14.2428C14.7739 14.2421 14.7788 14.2397 14.7812 14.2368C14.7836 14.2353 14.7836 14.2329 14.786 14.2307C14.786 14.2261 14.7884 14.2208 14.7884 14.2162C14.7909 14.2124 14.7933 14.209 14.7933 14.2053C14.7957 14.2008 14.8005 14.1988 14.8054 14.1991C14.8102 14.1993 14.8151 14.2 14.8223 14.201C14.8271 14.202 14.832 14.2029 14.8392 14.1998C14.8416 14.1986 14.8441 14.1974 14.8441 14.1962C14.8513 14.193 14.8537 14.1894 14.8586 14.186C14.861 14.1848 14.8634 14.1831 14.8634 14.1812C14.8658 14.1766 14.8658 14.1722 14.8682 14.1679C14.8707 14.1647 14.8731 14.1626 14.8755 14.1604C14.8803 14.1565 14.8852 14.1558 14.8924 14.157C14.8997 14.1589 14.9069 14.1623 14.9118 14.1652C14.919 14.1684 14.9263 14.1708 14.9335 14.1713C14.9384 14.1715 14.9432 14.1705 14.948 14.1679C14.9529 14.1638 14.9601 14.1606 14.9674 14.1594C14.9747 14.158 14.9819 14.1606 14.9867 14.1674C14.9892 14.1722 14.9916 14.1778 14.9916 14.1836C14.9916 14.1923 14.9916 14.2012 14.994 14.2102C14.994 14.2172 14.994 14.2245 14.994 14.2312C14.994 14.237 14.994 14.2428 14.994 14.2486C14.9916 14.2602 14.9891 14.2716 14.9891 14.2827C14.9891 14.2868 14.9891 14.2905 14.9891 14.2943C14.9891 14.2975 14.9892 14.3004 14.9916 14.3023C14.9964 14.3074 15.0037 14.312 15.0085 14.3171C15.0085 14.3176 15.0085 14.3178 15.0109 14.3183C15.0158 14.3214 15.0182 14.3263 15.0182 14.3323C15.0182 14.3408 15.0182 14.349 15.0182 14.3575C15.0182 14.3594 15.0182 14.3613 15.0182 14.3628C15.0133 14.3693 15.0109 14.3756 15.0061 14.3807C15.0037 14.3831 15.0012 14.385 14.9988 14.3865C14.9843 14.3947 14.9698 14.4024 14.9553 14.4109C14.9553 14.4109 14.9529 14.4114 14.9529 14.4116C14.9529 14.4133 14.9529 14.4218 14.9505 14.4293C14.9505 14.43 14.9505 14.4307 14.9505 14.4314C14.9505 14.4479 14.9505 14.466 14.9505 14.4849C14.9505 14.49 14.9505 14.495 14.9505 14.5001C14.9529 14.5081 14.9529 14.5163 14.9529 14.5243C14.965 14.6193 14.994 14.7308 15.0133 14.8125C15.0303 14.888 14.9867 15.0239 15.0182 15.118C15.0472 15.2086 15.0689 15.3087 15.098 15.396C15.1028 15.4604 15.1052 15.5242 15.1101 15.588C15.1173 15.6064 15.1512 15.6567 15.1584 15.6749C15.1947 15.7515 15.1633 15.7779 15.2721 15.7825C15.2721 15.7745 15.2116 15.6016 15.2406 15.5288C15.3011 15.3818 15.2116 15.3276 15.3688 15.2669C15.4583 15.1891 15.6638 15.2454 15.7025 15.3266C15.7412 15.3694 15.7484 15.4311 15.7388 15.4814C15.746 15.5336 15.7194 15.6785 15.7001 15.6983C15.6711 15.7443 15.6493 15.7839 15.6179 15.8299C15.5937 15.8676 15.5405 15.891 15.5236 15.937C15.4462 16.1312 15.6566 16.247 15.6155 16.4184C15.6082 16.4433 15.5647 16.5425 15.5478 16.5696C15.5163 16.5979 15.4825 16.6264 15.451 16.6544C15.4027 16.7429 15.4244 16.8331 15.3906 16.9299C15.3761 16.9739 15.3229 17.0595 15.3519 17.1359C15.364 17.1688 15.4075 17.1956 15.422 17.2225C15.4268 17.2674 15.4341 17.3122 15.4413 17.3569C15.4849 17.4568 15.5792 17.5528 15.6227 17.6519C15.7073 17.8384 15.7243 18.04 15.821 18.2064C15.8766 18.3 15.9903 18.3737 16.0531 18.4644C16.1208 18.5645 16.1281 18.6808 16.1958 18.773C16.307 18.9193 16.3506 19.1347 16.515 19.2295C16.8681 19.4338 16.6528 19.5289 16.619 19.5335ZM15.9685 13.8707L16.4715 13.7819L14.9626 13.8463L15.5864 12.998L14.832 13.7258L14.6482 12.6505L14.6603 13.7343L13.8139 13.1685L14.5442 13.868L13.0885 14.067L13.5842 14.0709L13.2626 20.0435L14.965 19.8943L14.9698 18.8242L15.5598 18.7727L15.7412 19.8263L17.4242 19.6793L15.9685 13.8707Z" fill="url(#paint1_linear_137_4414)"/>
<path d="M20.8676 15.2283L19.3394 15.3622L19.3007 14.9245C19.2813 14.7202 19.2523 14.5918 19.2064 14.5393C19.1628 14.4869 19.0951 14.4646 19.0032 14.4724C18.9041 14.4813 18.834 14.5256 18.7904 14.6053C18.7445 14.6851 18.73 14.8019 18.7421 14.955C18.759 15.1521 18.8025 15.2981 18.8678 15.3927C18.9307 15.488 19.0975 15.5949 19.3635 15.7133C20.1325 16.0548 20.6234 16.3474 20.8362 16.5911C21.0514 16.8346 21.182 17.2457 21.2328 17.8244C21.269 18.2451 21.2448 18.5597 21.1554 18.7684C21.0683 18.9771 20.8773 19.1621 20.5871 19.3234C20.2969 19.4849 19.9512 19.5833 19.5497 19.6184C19.1096 19.6568 18.7252 19.6121 18.4011 19.4837C18.0747 19.3553 17.8546 19.1749 17.7361 18.9425C17.6177 18.7104 17.5403 18.373 17.5016 17.9303L17.4677 17.5436L18.996 17.4097L19.0588 18.1283C19.0782 18.3498 19.1145 18.4901 19.1628 18.5496C19.2112 18.6091 19.2886 18.634 19.3998 18.6243C19.5086 18.6146 19.586 18.5675 19.6319 18.4826C19.6803 18.3975 19.6948 18.2763 19.6827 18.1182C19.6513 17.7705 19.5812 17.5475 19.4699 17.4493C19.3563 17.3516 19.083 17.1952 18.6526 16.9807C18.2198 16.7635 17.9344 16.6039 17.7893 16.5009C17.6466 16.3984 17.5233 16.2502 17.4193 16.0555C17.313 15.8616 17.2477 15.6077 17.2186 15.2938C17.18 14.8416 17.2138 14.5055 17.3178 14.2857C17.4242 14.0656 17.6104 13.8847 17.8764 13.7423C18.1424 13.6004 18.4712 13.5121 18.863 13.478C19.291 13.4403 19.661 13.4729 19.9729 13.5755C20.2849 13.678 20.4977 13.8231 20.6137 14.01C20.7274 14.1974 20.8072 14.5256 20.8483 14.9949L20.8676 15.2283Z" fill="url(#paint2_linear_137_4414)"/>
<path d="M22.8915 13.2505L23.4066 19.1558L21.7598 19.2999L21.2448 13.3944L22.8915 13.2505Z" fill="url(#paint3_linear_137_4414)"/>
<path d="M27.6457 15.2352L25.982 15.3807L25.9239 14.7148C25.8973 14.4164 25.8635 14.2319 25.82 14.1608C25.7789 14.0899 25.6966 14.06 25.5757 14.0706C25.4403 14.0827 25.3557 14.1349 25.3267 14.2283C25.2976 14.3214 25.2976 14.5175 25.3218 14.8166L25.5322 17.2161C25.5588 17.5034 25.5926 17.6889 25.6362 17.7733C25.6821 17.8574 25.7692 17.8939 25.8973 17.8826C26.0207 17.8719 26.098 17.8211 26.1295 17.73C26.1609 17.6388 26.1609 17.4311 26.1319 17.1068L26.0666 16.3398L27.7303 16.1942L27.7666 16.6208C27.8198 17.2321 27.8101 17.6695 27.7399 17.9336C27.6698 18.1974 27.4812 18.4397 27.179 18.66C26.8743 18.8805 26.4898 19.0111 26.0207 19.0522C25.5322 19.0948 25.1235 19.0486 24.7923 18.9132C24.4634 18.778 24.2337 18.5705 24.1055 18.2915C23.9773 18.0124 23.8879 17.5837 23.8371 17.0045L23.6872 15.2792C23.6485 14.8538 23.6388 14.5332 23.6509 14.3177C23.663 14.1023 23.7404 13.889 23.8806 13.6781C24.0184 13.4678 24.2216 13.2937 24.49 13.1563C24.7584 13.019 25.0728 12.9343 25.4331 12.9029C25.9239 12.8601 26.3374 12.9118 26.6712 13.0589C27.0049 13.2059 27.2322 13.4056 27.3555 13.6578C27.4788 13.91 27.5634 14.3119 27.6118 14.8633L27.6457 15.2352Z" fill="url(#paint4_linear_137_4414)"/>
<path d="M29.3433 12.6746L32.0685 12.4359L32.1725 13.6228L31.0553 13.7205L31.1544 14.8449L32.1483 14.7578L32.2474 15.8859L31.2536 15.973L31.4712 18.4636L29.8607 18.6046L29.3433 12.6746Z" fill="url(#paint5_linear_137_4414)"/>
<path d="M34.0706 12.2612L34.588 18.1909L32.9776 18.3319L32.4601 12.4019L34.0706 12.2612Z" fill="url(#paint6_linear_137_4414)"/>
<path d="M37.9589 11.9207L38.0629 13.1073L37.1078 13.1912L37.5212 17.9343L35.9108 18.0751L35.4973 13.3321L34.5445 13.4153L34.4406 12.2287L37.9589 11.9207Z" fill="url(#paint7_linear_137_4414)"/>
<path d="M28.1319 16.1589L29.2152 16.0644L29.133 15.1054L28.0497 15.1999L28.1319 16.1589Z" fill="url(#paint8_linear_137_4414)"/>
<path d="M10.5397 17.5985L10.6824 19.2511C10.9146 19.2233 11.1467 19.1689 11.2047 19.1026C11.2628 19.0359 11.2821 18.8838 11.2603 18.6454L11.212 18.0947C11.1902 17.8416 11.1491 17.6912 11.0863 17.6426C11.0234 17.5942 10.784 17.5843 10.5397 17.5985ZM10.3439 15.3661L10.4575 16.6794C10.5277 16.6709 10.6703 16.6574 10.709 16.6538C10.871 16.6397 10.9702 16.5936 11.0064 16.5157C11.0451 16.4376 11.05 16.2236 11.0185 15.8732C11.0016 15.6882 10.9726 15.5605 10.9291 15.4894C10.8856 15.4186 10.8348 15.3758 10.7743 15.3615C10.7139 15.3473 10.5132 15.3538 10.3439 15.3661ZM8.60767 14.4999L10.252 14.3561C10.7695 14.3108 11.2531 14.3067 11.5263 14.3585C11.7996 14.4105 12.0293 14.544 12.2131 14.7592C12.3993 14.9746 12.513 15.3373 12.5565 15.8476C12.5879 16.1926 12.5516 16.4386 12.4477 16.5849C12.3413 16.7309 12.1236 16.8557 11.7875 16.9582C12.1744 17.0054 12.4453 17.1159 12.5976 17.2902C12.7499 17.4643 12.8418 17.7439 12.8757 18.1281L12.924 18.6756C12.9579 19.0746 12.9361 19.3744 12.8539 19.5754C12.7741 19.7761 12.629 19.9212 12.4211 20.0104C12.2131 20.0996 11.7778 20.1734 11.1153 20.2312L9.12513 20.4053L8.60767 14.4999Z" fill="url(#paint9_linear_137_4414)"/>
<defs>
<linearGradient id="paint0_linear_137_4414" x1="44.8455" y1="4.7608" x2="3.02308" y2="41.5642" gradientUnits="userSpaceOnUse">
<stop stop-color="#FFAA30"/>
<stop offset="0.361383" stop-color="#FE7000"/>
<stop offset="1" stop-color="#FE7000"/>
</linearGradient>
<linearGradient id="paint1_linear_137_4414" x1="17.4507" y1="13.4943" x2="11.3391" y2="16.6668" gradientUnits="userSpaceOnUse">
<stop stop-color="#FFAA30"/>
<stop offset="0.361383" stop-color="#FE7000"/>
<stop offset="1" stop-color="#FE7000"/>
</linearGradient>
<linearGradient id="paint2_linear_137_4414" x1="21.2737" y1="14.1669" x2="15.8588" y2="17.3103" gradientUnits="userSpaceOnUse">
<stop stop-color="#FFAA30"/>
<stop offset="0.361383" stop-color="#FE7000"/>
<stop offset="1" stop-color="#FE7000"/>
</linearGradient>
<linearGradient id="paint3_linear_137_4414" x1="23.4198" y1="13.9409" x2="19.9032" y2="15.0532" gradientUnits="userSpaceOnUse">
<stop stop-color="#FFAA30"/>
<stop offset="0.361383" stop-color="#FE7000"/>
<stop offset="1" stop-color="#FE7000"/>
</linearGradient>
<linearGradient id="paint4_linear_137_4414" x1="27.8259" y1="13.5936" x2="22.336" y2="16.8607" gradientUnits="userSpaceOnUse">
<stop stop-color="#FFAA30"/>
<stop offset="0.361383" stop-color="#FE7000"/>
<stop offset="1" stop-color="#FE7000"/>
</linearGradient>
<linearGradient id="paint5_linear_137_4414" x1="32.2652" y1="13.14" x2="27.8373" y2="14.9851" gradientUnits="userSpaceOnUse">
<stop stop-color="#FFAA30"/>
<stop offset="0.361383" stop-color="#FE7000"/>
<stop offset="1" stop-color="#FE7000"/>
</linearGradient>
<linearGradient id="paint6_linear_137_4414" x1="34.6011" y1="12.954" x2="31.1276" y2="14.0317" gradientUnits="userSpaceOnUse">
<stop stop-color="#FFAA30"/>
<stop offset="0.361383" stop-color="#FE7000"/>
<stop offset="1" stop-color="#FE7000"/>
</linearGradient>
<linearGradient id="paint7_linear_137_4414" x1="38.0851" y1="12.6231" x2="32.9868" y2="15.2791" gradientUnits="userSpaceOnUse">
<stop stop-color="#FFAA30"/>
<stop offset="0.361383" stop-color="#FE7000"/>
<stop offset="1" stop-color="#FE7000"/>
</linearGradient>
<linearGradient id="paint8_linear_137_4414" x1="29.2223" y1="15.2256" x2="28.1576" y2="16.2682" gradientUnits="userSpaceOnUse">
<stop stop-color="#FFAA30"/>
<stop offset="0.361383" stop-color="#FE7000"/>
<stop offset="1" stop-color="#FE7000"/>
</linearGradient>
<linearGradient id="paint9_linear_137_4414" x1="12.9658" y1="15.0153" x2="7.41774" y2="18.5115" gradientUnits="userSpaceOnUse">
<stop stop-color="#FFAA30"/>
<stop offset="0.361383" stop-color="#FE7000"/>
<stop offset="1" stop-color="#FE7000"/>
</linearGradient>
</defs>
</svg>
